<svg width="20" height="20" viewBox="0 0 20 20" fill="none" xmlns="http://www.w3.org/2000/svg">
<g clip-path="url(#clip0_216_112)">
<path d="M1.71808 10.2849C1.64866 10.0979 1.64866 9.89221 1.71808 9.70521C2.39417 8.06587 3.5418 6.6642 5.01548 5.67788C6.48915 4.69157 8.2225 4.16504 9.99578 4.16504C11.7691 4.16504 13.5024 4.69157 14.9761 5.67788C16.4498 6.6642 17.5974 8.06587 18.2735 9.70521C18.3429 9.89221 18.3429 10.0979 18.2735 10.2849C17.5974 11.9243 16.4498 13.3259 14.9761 14.3123C13.5024 15.2986 11.7691 15.8251 9.99578 15.8251C8.2225 15.8251 6.48915 15.2986 5.01548 14.3123C3.5418 13.3259 2.39417 11.9243 1.71808 10.2849Z" stroke="#99A1AF" stroke-width="1.66587" stroke-linecap="round" stroke-linejoin="round"/>
<path d="M9.9949 12.4942C11.3749 12.4942 12.4937 11.3754 12.4937 9.99539C12.4937 8.61533 11.3749 7.49658 9.9949 7.49658C8.61485 7.49658 7.49609 8.61533 7.49609 9.99539C7.49609 11.3754 8.61485 12.4942 9.9949 12.4942Z" stroke="#99A1AF" stroke-width="1.66587" stroke-linecap="round" stroke-linejoin="round"/>
</g>
<defs>
<clipPath id="clip0_216_112">
<rect width="19.9904" height="19.9904" fill="white"/>
</clipPath>
</defs>
</svg>
