<svg width="16" height="16" viewBox="0 0 16 16" fill="none" xmlns="http://www.w3.org/2000/svg">
<path d="M1.33325 6.33344C1.33327 5.59158 1.55831 4.86716 1.97867 4.25588C2.39903 3.6446 2.99493 3.17521 3.68766 2.90971C4.38039 2.6442 5.13736 2.59507 5.85859 2.7688C6.57983 2.94254 7.2314 3.33096 7.72725 3.88277C7.76218 3.92012 7.8044 3.94989 7.8513 3.97024C7.89821 3.99059 7.94879 4.0011 7.99992 4.0011C8.05105 4.0011 8.10163 3.99059 8.14853 3.97024C8.19544 3.94989 8.23766 3.92012 8.27259 3.88277C8.76688 3.32737 9.4186 2.93569 10.141 2.75984C10.8634 2.584 11.6222 2.63234 12.3165 2.89843C13.0108 3.16452 13.6075 3.63574 14.0273 4.24938C14.4471 4.86301 14.6701 5.58995 14.6666 6.33344C14.6666 7.86011 13.6666 9.00011 12.6666 10.0001L9.00525 13.5421C8.88103 13.6848 8.72787 13.7994 8.55595 13.8783C8.38403 13.9572 8.19728 13.9987 8.00811 13.9999C7.81894 14.0011 7.63168 13.962 7.45878 13.8853C7.28587 13.8085 7.13127 13.6959 7.00525 13.5548L3.33325 10.0001C2.33325 9.00011 1.33325 7.86677 1.33325 6.33344Z" stroke="#155DFC" stroke-width="1.33333" stroke-linecap="round" stroke-linejoin="round"/>
</svg>
