<svg width="20" height="20" viewBox="0 0 20 20" fill="none" xmlns="http://www.w3.org/2000/svg">
<path d="M12.1075 18.0628C12.1392 18.1417 12.1942 18.209 12.2652 18.2557C12.3362 18.3024 12.4198 18.3262 12.5047 18.324C12.5896 18.3219 12.6719 18.2938 12.7404 18.2435C12.8089 18.1932 12.8604 18.1232 12.888 18.0428L18.3021 2.21706C18.3287 2.14325 18.3338 2.06339 18.3167 1.9868C18.2996 1.91021 18.2611 1.84007 18.2056 1.78458C18.1501 1.72909 18.08 1.69056 18.0034 1.67348C17.9268 1.6564 17.8469 1.66149 17.7731 1.68814L1.94739 7.10222C1.867 7.12979 1.79698 7.18128 1.74671 7.24979C1.69644 7.3183 1.66833 7.40055 1.66615 7.4855C1.66398 7.57045 1.68784 7.65403 1.73454 7.72503C1.78123 7.79602 1.84853 7.85103 1.92739 7.88268L8.53257 10.5314C8.74137 10.615 8.93109 10.74 9.09027 10.8989C9.24946 11.0578 9.37482 11.2473 9.45879 11.456L12.1075 18.0628Z" stroke="white" stroke-width="1.66587" stroke-linecap="round" stroke-linejoin="round"/>
<path d="M18.2031 1.78809L9.09082 10.8996" stroke="white" stroke-width="1.66587" stroke-linecap="round" stroke-linejoin="round"/>
</svg>
