<svg width="48" height="48" viewBox="0 0 48 48" fill="none" xmlns="http://www.w3.org/2000/svg">
<path d="M43.46 36L27.46 7.99996C27.1111 7.38437 26.6052 6.87234 25.9938 6.5161C25.3825 6.15986 24.6876 5.97217 23.98 5.97217C23.2724 5.97217 22.5775 6.15986 21.9661 6.5161C21.3548 6.87234 20.8489 7.38437 20.5 7.99996L4.49998 36C4.14735 36.6107 3.96244 37.3038 3.964 38.009C3.96556 38.7142 4.15354 39.4065 4.50887 40.0156C4.86421 40.6248 5.37428 41.1291 5.98737 41.4776C6.60047 41.8261 7.2948 42.0063 7.99998 42H40C40.7018 41.9992 41.391 41.8139 41.9985 41.4625C42.606 41.1112 43.1104 40.6061 43.461 39.9982C43.8116 39.3902 43.9961 38.7007 43.9959 37.9989C43.9957 37.2971 43.8109 36.6077 43.46 36Z" stroke="white" stroke-width="4" stroke-linecap="round" stroke-linejoin="round"/>
<path d="M24 18V26" stroke="white" stroke-width="4" stroke-linecap="round" stroke-linejoin="round"/>
<path d="M24 34H24.02" stroke="white" stroke-width="4" stroke-linecap="round" stroke-linejoin="round"/>
</svg>
